<svg xmlns="http://www.w3.org/2000/svg" xml:space="preserve" style="enable-background:new 0 0 512 512" viewBox="0 0 512 512"><path d="M512 137.067v301.867c0 18.133-13.867 32-32 32H32c-18.133 0-32-13.867-32-32V137.067c0-17.067 13.867-32 32-32h448c18.133 0 32 13.866 32 32z" style="fill:#f3705a"/><path d="M512 216v-78.933c0-17.067-13.867-32-32-32H32c-18.133 0-32 14.933-32 32V216h512z" style="fill:#344a5e"/><circle cx="289.067" cy="287.467" r="145.067" style="fill:#415a6b"/><circle cx="289.067" cy="287.467" r="106.667" style="fill:#ced6e0"/><circle cx="289.067" cy="287.467" r="62.933" style="fill:#55c0eb"/><circle cx="332.8" cy="260.8" r="26.667" style="fill:#fff"/><path d="M118.4 181.867H49.067a9.56 9.56 0 0 1-9.6-9.6v-19.2a9.56 9.56 0 0 1 9.6-9.6H118.4a9.56 9.56 0 0 1 9.6 9.6v19.2a9.56 9.56 0 0 1-9.6 9.6z" style="fill:#ffd15c"/><path d="M106.667 75.2h-38.4a9.56 9.56 0 0 0-9.6 9.6V104h57.6V85.867c0-6.4-4.267-10.667-9.6-10.667z" style="fill:#415a6b"/><path d="M347.733 41.067H230.4c-10.667 0-19.2 6.4-22.4 16l-16 48h196.267l-16-48c-4.267-9.6-13.867-16-24.534-16z" style="fill:#344a5e"/></svg>